# xmcd
#
# Track frame offsets:
# 150
# 39036
# 67881
# 100398
# 139438
# 168766
#
# Disc length: 3026 seconds
#
#
# Revision: 3
# Processed by: cddbd v1.5.1PL0 Copyright (c) Steve Scherf et al.
# Submitted via: FreeRIP 2.60 
#
DISCID=460bd006
DTITLE=Creedence Clearwater Revival - Anniversary Edition - Bonus Disc
DYEAR=1990
DGENRE=Rock
TTITLE0=Suzie Q
TTITLE1=Pagan Baby
TTITLE2=Ramble Tamble
TTITLE3=Graveyard Train
TTITLE4=Effigy
TTITLE5=Keep On Chooglin (live)
EXTD=
EXTT0=
EXTT1=
EXTT2=
EXTT3=
EXTT4=
EXTT5=
PLAYORDER=
